<svg width="516" height="192" viewBox="0 0 516 192" fill="none" xmlns="http://www.w3.org/2000/svg">
<path fill-rule="evenodd" clipRule="evenodd" d="M151.776 107.84C151.776 108.056 151.776 108.236 151.739 108.416C151.739 108.452 151.739 108.488 151.715 108.536V108.584C151.694 108.651 151.677 108.719 151.665 108.788C151.665 108.824 151.665 108.872 151.641 108.932V108.98C151.62 109.014 151.604 109.05 151.592 109.088C151.592 109.112 151.592 109.136 151.567 109.16V109.196L151.444 109.508L151.345 109.724L151.234 109.94L151.198 110.012C151.161 110.088 151.111 110.157 151.05 110.216L151.013 110.288L150.964 110.36C150.887 110.472 150.805 110.58 150.717 110.684C150.682 110.722 150.65 110.762 150.619 110.804L150.496 110.924L150.323 111.104C150.284 111.146 150.243 111.186 150.2 111.224C150.157 111.254 150.116 111.286 150.077 111.32L149.954 111.392L149.843 111.464L149.806 111.5L149.769 111.536L101.012 143.216C100.255 143.701 99.3688 143.959 98.4631 143.959C97.5573 143.959 96.6714 143.701 95.9144 143.216L47.1815 111.572L47.1446 111.536L47.12 111.5L46.9968 111.428L46.8983 111.356C46.8592 111.318 46.8181 111.282 46.7752 111.248C46.7322 111.214 46.6911 111.178 46.6521 111.14L46.4551 110.972C46.3764 110.895 46.3063 110.811 46.2458 110.72C46.2059 110.653 46.1561 110.592 46.098 110.54C46.0152 110.458 45.9521 110.36 45.9133 110.252C45.8762 110.176 45.8263 110.107 45.7656 110.048L45.6548 109.832L45.6178 109.76L45.507 109.544L45.3962 109.232L45.3593 109.112L45.3346 109.016C45.2886 108.889 45.2637 108.755 45.2608 108.62L45.2361 108.5L45.2238 108.44C45.1869 108.272 45.1869 108.056 45.1869 107.876V76.2318C45.1869 76.0158 45.1869 75.8358 45.2238 75.6678L45.2361 75.5478L45.2608 75.4878L45.2977 75.2838C45.2977 75.2478 45.2977 75.1998 45.3223 75.1518V75.0798L45.3593 74.9718L45.3962 74.8638L45.5193 74.5518L45.6178 74.3358C45.6475 74.2605 45.6846 74.1882 45.7286 74.1199L45.7656 74.0478C45.8027 73.9722 45.8526 73.9032 45.9133 73.8438L45.9995 73.6998L46.098 73.5558C46.1378 73.489 46.1876 73.4284 46.2458 73.3758L46.3443 73.2558C46.3812 73.2078 46.4181 73.1598 46.4674 73.1358L46.6398 72.9558C46.6786 72.9137 46.7197 72.8737 46.7629 72.8358C46.8121 72.8118 46.8614 72.7758 46.886 72.7398L46.9353 72.7158L47.0091 72.6678C47.0439 72.6407 47.0809 72.6167 47.12 72.5958L47.1569 72.5598L47.1815 72.5238L95.9144 40.8918C96.664 40.4058 97.5443 40.1465 98.4446 40.1465C99.345 40.1465 100.225 40.4058 100.975 40.8918L149.695 72.5358L149.745 72.5718L149.769 72.6078L149.892 72.6798L149.954 72.7278L149.991 72.7518C150.015 72.7729 150.039 72.7929 150.065 72.8118L150.126 72.8598L150.249 72.9678L150.434 73.1358L150.643 73.3878L150.742 73.5078L150.791 73.5679C150.874 73.6495 150.937 73.7478 150.976 73.8558C151.013 73.9317 151.063 74.0008 151.124 74.0598C151.188 74.1478 151.238 74.245 151.271 74.3478L151.382 74.5638L151.481 74.8758C151.505 74.9118 151.518 74.9478 151.518 74.9958L151.555 75.0918C151.592 75.2118 151.628 75.3318 151.628 75.4878L151.653 75.6078L151.665 75.6678C151.696 75.8543 151.708 76.0431 151.702 76.2318V107.84H151.776ZM54.372 99.4638V84.5358L65.8103 91.9998L54.372 99.4638ZM93.9074 52.8558V73.6758L74.0474 86.6358L58.0165 76.1958L93.9074 52.8558ZM103.056 52.8558L138.947 76.1958L122.916 86.6358L103.056 73.6758V52.8558ZM93.9074 131.144L58.0165 107.84L74.0474 97.3638L93.9074 110.324V131.144ZM103.056 131.144V110.324L122.916 97.3638L138.947 107.84L103.056 131.144ZM98.5 102.548L82.2845 91.9998L98.5 81.4518L114.679 91.9998L98.5 102.56V102.548ZM142.628 84.5478V99.4638L131.153 91.9998L142.628 84.5358V84.5478Z" fill="#4B4B4B"/>
<path d="M195.133 121.781C189.951 121.781 185.315 120.609 181.227 118.266C177.138 115.922 173.909 112.523 171.539 108.07C169.195 103.617 168.023 98.2396 168.023 91.9375C168.023 85.5833 169.208 80.1797 171.578 75.7266C173.974 71.2734 177.216 67.875 181.305 65.5312C185.419 63.1875 190.029 62.0156 195.133 62.0156C199.638 62.0156 203.688 62.849 207.281 64.5156C210.901 66.1823 213.857 68.5911 216.148 71.7422C218.44 74.8932 219.846 78.7083 220.367 83.1875H207.945C207.477 79.9844 206.109 77.4714 203.844 75.6484C201.578 73.7995 198.766 72.875 195.406 72.875C190.927 72.875 187.32 74.5417 184.586 77.875C181.852 81.1823 180.484 85.8698 180.484 91.9375C180.484 98.1354 181.852 102.849 184.586 106.078C187.346 109.307 190.94 110.922 195.367 110.922C198.622 110.922 201.383 110.062 203.648 108.344C205.94 106.625 207.372 104.216 207.945 101.117H220.367C219.924 104.685 218.648 108.044 216.539 111.195C214.456 114.346 211.604 116.898 207.984 118.852C204.391 120.805 200.107 121.781 195.133 121.781ZM248.688 121.859C244.286 121.859 240.471 120.922 237.242 119.047C234.039 117.146 231.565 114.516 229.82 111.156C228.102 107.771 227.242 103.839 227.242 99.3594C227.242 94.8542 228.102 90.9089 229.82 87.5234C231.565 84.138 234.039 81.5078 237.242 79.6328C240.471 77.7318 244.286 76.7812 248.688 76.7812C253.115 76.7812 256.93 77.7318 260.133 79.6328C263.362 81.5078 265.836 84.138 267.555 87.5234C269.299 90.9089 270.172 94.8542 270.172 99.3594C270.172 103.839 269.299 107.771 267.555 111.156C265.836 114.516 263.362 117.146 260.133 119.047C256.93 120.922 253.115 121.859 248.688 121.859ZM239.547 99.2812C239.547 103.083 240.315 106.221 241.852 108.695C243.388 111.169 245.68 112.406 248.727 112.406C251.747 112.406 254.026 111.169 255.562 108.695C257.099 106.221 257.867 103.083 257.867 99.2812C257.867 95.4792 257.099 92.3542 255.562 89.9062C254.026 87.4583 251.747 86.2344 248.727 86.2344C245.68 86.2344 243.388 87.4583 241.852 89.9062C240.315 92.3542 239.547 95.4792 239.547 99.2812ZM294.117 121.703C290.784 121.703 287.776 120.844 285.094 119.125C282.411 117.406 280.289 114.88 278.727 111.547C277.164 108.188 276.383 104.086 276.383 99.2422C276.383 94.2422 277.19 90.0755 278.805 86.7422C280.419 83.4089 282.568 80.9219 285.25 79.2812C287.932 77.6146 290.862 76.7812 294.039 76.7812C296.487 76.7812 298.531 77.1979 300.172 78.0312C301.812 78.8385 303.141 79.8542 304.156 81.0781C305.172 82.3021 305.94 83.513 306.461 84.7109H306.812V62.7969H318.922V121H307.008V114.008H306.461C305.914 115.206 305.12 116.404 304.078 117.602C303.036 118.773 301.695 119.75 300.055 120.531C298.44 121.312 296.461 121.703 294.117 121.703ZM307.086 99.2031C307.086 95.2969 306.292 92.1849 304.703 89.8672C303.115 87.5495 300.849 86.3906 297.906 86.3906C294.911 86.3906 292.633 87.5755 291.07 89.9453C289.534 92.3151 288.766 95.401 288.766 99.2031C288.766 102.979 289.547 106.078 291.109 108.5C292.672 110.896 294.938 112.094 297.906 112.094C300.823 112.094 303.076 110.909 304.664 108.539C306.279 106.169 307.086 103.057 307.086 99.2031ZM348.492 121.859C344.013 121.859 340.159 120.948 336.93 119.125C333.701 117.302 331.214 114.711 329.469 111.352C327.724 107.966 326.852 103.969 326.852 99.3594C326.852 94.8802 327.711 90.9479 329.43 87.5625C331.174 84.1771 333.622 81.5339 336.773 79.6328C339.924 77.7318 343.635 76.7812 347.906 76.7812C351.76 76.7812 355.237 77.6016 358.336 79.2422C361.461 80.8828 363.935 83.3438 365.758 86.625C367.607 89.9062 368.531 94.0208 368.531 98.9688V102.25H338.766C338.896 105.557 339.859 108.148 341.656 110.023C343.453 111.898 345.797 112.836 348.688 112.836C350.693 112.836 352.411 112.406 353.844 111.547C355.302 110.688 356.344 109.438 356.969 107.797L368.141 108.539C367.281 112.549 365.133 115.779 361.695 118.227C358.284 120.648 353.883 121.859 348.492 121.859ZM338.844 94.7891H356.93C356.643 92.0286 355.758 89.8411 354.273 88.2266C352.789 86.612 350.706 85.8047 348.023 85.8047C345.315 85.8047 343.167 86.651 341.578 88.3438C340.016 90.0104 339.104 92.1589 338.844 94.7891ZM376.5 137.328V77.3281H388.414V84.7109H388.961C389.508 83.513 390.276 82.3021 391.266 81.0781C392.281 79.8542 393.609 78.8385 395.25 78.0312C396.917 77.1979 398.961 76.7812 401.383 76.7812C404.586 76.7812 407.516 77.6146 410.172 79.2812C412.854 80.9219 415.003 83.4089 416.617 86.7422C418.232 90.0755 419.039 94.2422 419.039 99.2422C419.039 104.086 418.258 108.188 416.695 111.547C415.133 114.88 413.01 117.406 410.328 119.125C407.646 120.844 404.638 121.703 401.305 121.703C398.961 121.703 396.969 121.312 395.328 120.531C393.714 119.75 392.385 118.773 391.344 117.602C390.328 116.404 389.534 115.206 388.961 114.008H388.609V137.328H376.5ZM388.336 99.2031C388.336 103.057 389.13 106.169 390.719 108.539C392.333 110.909 394.599 112.094 397.516 112.094C400.484 112.094 402.75 110.896 404.312 108.5C405.875 106.078 406.656 102.979 406.656 99.2031C406.656 95.401 405.875 92.3151 404.312 89.9453C402.776 87.5755 400.51 86.3906 397.516 86.3906C394.599 86.3906 392.333 87.5495 390.719 89.8672C389.13 92.1849 388.336 95.2969 388.336 99.2031ZM446.852 121.859C442.372 121.859 438.518 120.948 435.289 119.125C432.06 117.302 429.573 114.711 427.828 111.352C426.083 107.966 425.211 103.969 425.211 99.3594C425.211 94.8802 426.07 90.9479 427.789 87.5625C429.534 84.1771 431.982 81.5339 435.133 79.6328C438.284 77.7318 441.995 76.7812 446.266 76.7812C450.12 76.7812 453.596 77.6016 456.695 79.2422C459.82 80.8828 462.294 83.3438 464.117 86.625C465.966 89.9062 466.891 94.0208 466.891 98.9688V102.25H437.125C437.255 105.557 438.219 108.148 440.016 110.023C441.812 111.898 444.156 112.836 447.047 112.836C449.052 112.836 450.771 112.406 452.203 111.547C453.661 110.688 454.703 109.438 455.328 107.797L466.5 108.539C465.641 112.549 463.492 115.779 460.055 118.227C456.643 120.648 452.242 121.859 446.852 121.859ZM437.203 94.7891H455.289C455.003 92.0286 454.117 89.8411 452.633 88.2266C451.148 86.612 449.065 85.8047 446.383 85.8047C443.674 85.8047 441.526 86.651 439.938 88.3438C438.375 90.0104 437.464 92.1589 437.203 94.7891ZM486.969 95.7656V121H474.859V77.3281H486.773V85.1016H487.203C488.193 82.5495 489.768 80.5312 491.93 79.0469C494.091 77.5365 496.786 76.7812 500.016 76.7812C504.573 76.7812 508.219 78.2526 510.953 81.1953C513.714 84.112 515.094 88.1224 515.094 93.2266V121H502.984V95.375C502.984 92.6927 502.294 90.5964 500.914 89.0859C499.56 87.5755 497.672 86.8203 495.25 86.8203C492.802 86.8203 490.81 87.6146 489.273 89.2031C487.737 90.7656 486.969 92.9531 486.969 95.7656Z" fill="#4B4B4B" fill-opacity="0.8"/>
</svg>
