<svg width="521" height="168" viewBox="0 0 521 168" fill="none" xmlns="http://www.w3.org/2000/svg">
<path d="M170.133 109.781C164.951 109.781 160.315 108.609 156.227 106.266C152.138 103.922 148.909 100.523 146.539 96.0703C144.195 91.6172 143.023 86.2396 143.023 79.9375C143.023 73.5833 144.208 68.1797 146.578 63.7266C148.974 59.2734 152.216 55.875 156.305 53.5312C160.419 51.1875 165.029 50.0156 170.133 50.0156C174.638 50.0156 178.688 50.849 182.281 52.5156C185.901 54.1823 188.857 56.5911 191.148 59.7422C193.44 62.8932 194.846 66.7083 195.367 71.1875H182.945C182.477 67.9844 181.109 65.4714 178.844 63.6484C176.578 61.7995 173.766 60.875 170.406 60.875C165.927 60.875 162.32 62.5417 159.586 65.875C156.852 69.1823 155.484 73.8698 155.484 79.9375C155.484 86.1354 156.852 90.849 159.586 94.0781C162.346 97.3073 165.94 98.9219 170.367 98.9219C173.622 98.9219 176.383 98.0625 178.648 96.3438C180.94 94.625 182.372 92.2161 182.945 89.1172H195.367C194.924 92.6849 193.648 96.0443 191.539 99.1953C189.456 102.346 186.604 104.898 182.984 106.852C179.391 108.805 175.107 109.781 170.133 109.781ZM223.688 109.859C219.286 109.859 215.471 108.922 212.242 107.047C209.039 105.146 206.565 102.516 204.82 99.1562C203.102 95.7708 202.242 91.8385 202.242 87.3594C202.242 82.8542 203.102 78.9089 204.82 75.5234C206.565 72.138 209.039 69.5078 212.242 67.6328C215.471 65.7318 219.286 64.7812 223.688 64.7812C228.115 64.7812 231.93 65.7318 235.133 67.6328C238.362 69.5078 240.836 72.138 242.555 75.5234C244.299 78.9089 245.172 82.8542 245.172 87.3594C245.172 91.8385 244.299 95.7708 242.555 99.1562C240.836 102.516 238.362 105.146 235.133 107.047C231.93 108.922 228.115 109.859 223.688 109.859ZM214.547 87.2812C214.547 91.0833 215.315 94.2214 216.852 96.6953C218.388 99.1693 220.68 100.406 223.727 100.406C226.747 100.406 229.026 99.1693 230.562 96.6953C232.099 94.2214 232.867 91.0833 232.867 87.2812C232.867 83.4792 232.099 80.3542 230.562 77.9062C229.026 75.4583 226.747 74.2344 223.727 74.2344C220.68 74.2344 218.388 75.4583 216.852 77.9062C215.315 80.3542 214.547 83.4792 214.547 87.2812ZM269.117 109.703C265.784 109.703 262.776 108.844 260.094 107.125C257.411 105.406 255.289 102.88 253.727 99.5469C252.164 96.1875 251.383 92.0859 251.383 87.2422C251.383 82.2422 252.19 78.0755 253.805 74.7422C255.419 71.4089 257.568 68.9219 260.25 67.2812C262.932 65.6146 265.862 64.7812 269.039 64.7812C271.487 64.7812 273.531 65.1979 275.172 66.0312C276.812 66.8385 278.141 67.8542 279.156 69.0781C280.172 70.3021 280.94 71.513 281.461 72.7109H281.812V50.7969H293.922V109H282.008V102.008H281.461C280.914 103.206 280.12 104.404 279.078 105.602C278.036 106.773 276.695 107.75 275.055 108.531C273.44 109.312 271.461 109.703 269.117 109.703ZM282.086 87.2031C282.086 83.2969 281.292 80.1849 279.703 77.8672C278.115 75.5495 275.849 74.3906 272.906 74.3906C269.911 74.3906 267.633 75.5755 266.07 77.9453C264.534 80.3151 263.766 83.401 263.766 87.2031C263.766 90.9792 264.547 94.0781 266.109 96.5C267.672 98.8958 269.938 100.094 272.906 100.094C275.823 100.094 278.076 98.9089 279.664 96.5391C281.279 94.1693 282.086 91.0573 282.086 87.2031ZM323.492 109.859C319.013 109.859 315.159 108.948 311.93 107.125C308.701 105.302 306.214 102.711 304.469 99.3516C302.724 95.9661 301.852 91.9688 301.852 87.3594C301.852 82.8802 302.711 78.9479 304.43 75.5625C306.174 72.1771 308.622 69.5339 311.773 67.6328C314.924 65.7318 318.635 64.7812 322.906 64.7812C326.76 64.7812 330.237 65.6016 333.336 67.2422C336.461 68.8828 338.935 71.3438 340.758 74.625C342.607 77.9062 343.531 82.0208 343.531 86.9688V90.25H313.766C313.896 93.5573 314.859 96.1484 316.656 98.0234C318.453 99.8984 320.797 100.836 323.688 100.836C325.693 100.836 327.411 100.406 328.844 99.5469C330.302 98.6875 331.344 97.4375 331.969 95.7969L343.141 96.5391C342.281 100.549 340.133 103.779 336.695 106.227C333.284 108.648 328.883 109.859 323.492 109.859ZM313.844 82.7891H331.93C331.643 80.0286 330.758 77.8411 329.273 76.2266C327.789 74.612 325.706 73.8047 323.023 73.8047C320.315 73.8047 318.167 74.651 316.578 76.3438C315.016 78.0104 314.104 80.1589 313.844 82.7891ZM371.188 109.859C366.708 109.859 362.867 108.909 359.664 107.008C356.461 105.107 354 102.464 352.281 99.0781C350.589 95.6927 349.742 91.7865 349.742 87.3594C349.742 82.8802 350.602 78.9479 352.32 75.5625C354.065 72.1771 356.539 69.5339 359.742 67.6328C362.945 65.7318 366.747 64.7812 371.148 64.7812C374.951 64.7812 378.284 65.4714 381.148 66.8516C384.013 68.2318 386.279 70.1719 387.945 72.6719C389.612 75.1719 390.523 78.1146 390.68 81.5H379.273C378.935 79.3385 378.089 77.5938 376.734 76.2656C375.38 74.9115 373.583 74.2344 371.344 74.2344C368.531 74.2344 366.279 75.3672 364.586 77.6328C362.893 79.8724 362.047 83.0625 362.047 87.2031C362.047 91.3698 362.88 94.612 364.547 96.9297C366.24 99.2474 368.505 100.406 371.344 100.406C373.427 100.406 375.185 99.7552 376.617 98.4531C378.049 97.151 378.935 95.3281 379.273 92.9844H390.68C390.497 96.3177 389.599 99.2604 387.984 101.812C386.37 104.339 384.13 106.318 381.266 107.75C378.427 109.156 375.068 109.859 371.188 109.859ZM418.219 109.859C413.818 109.859 410.003 108.922 406.773 107.047C403.57 105.146 401.096 102.516 399.352 99.1562C397.633 95.7708 396.773 91.8385 396.773 87.3594C396.773 82.8542 397.633 78.9089 399.352 75.5234C401.096 72.138 403.57 69.5078 406.773 67.6328C410.003 65.7318 413.818 64.7812 418.219 64.7812C422.646 64.7812 426.461 65.7318 429.664 67.6328C432.893 69.5078 435.367 72.138 437.086 75.5234C438.831 78.9089 439.703 82.8542 439.703 87.3594C439.703 91.8385 438.831 95.7708 437.086 99.1562C435.367 102.516 432.893 105.146 429.664 107.047C426.461 108.922 422.646 109.859 418.219 109.859ZM409.078 87.2812C409.078 91.0833 409.846 94.2214 411.383 96.6953C412.919 99.1693 415.211 100.406 418.258 100.406C421.279 100.406 423.557 99.1693 425.094 96.6953C426.63 94.2214 427.398 91.0833 427.398 87.2812C427.398 83.4792 426.63 80.3542 425.094 77.9062C423.557 75.4583 421.279 74.2344 418.258 74.2344C415.211 74.2344 412.919 75.4583 411.383 77.9062C409.846 80.3542 409.078 83.4792 409.078 87.2812ZM488.336 65.3281L473.062 109H459.391L444.195 65.3281H457.008L466.188 96.6172H466.656L475.68 65.3281H488.336Z" fill="#4B4B4B" fill-opacity="0.8"/>
<path d="M70.0349 17C38.0571 17.0184 12.0263 41.1286 12 70.7399C15.1938 72.9471 17.0867 73.9407 19.6241 75.0199C24.8187 71.7436 30.8391 70.0097 37.0336 70.0097C38.8821 70.0097 40.7478 70.168 42.579 70.4774C48.3537 71.448 58.4682 76.8975 62.661 80.5339C63.632 78.54 64.778 76.639 66.085 74.8542C66.6308 74.1175 67.2083 73.3974 67.8102 72.6967C62.5304 68.5667 51.2511 62.7609 44.3277 61.596C41.9133 61.1892 39.4701 60.9847 37.0227 60.9846C32.0149 60.9772 27.0506 61.8409 22.3864 63.5279C26.1758 42.043 46.3394 26.0435 70.0766 26.0251C82.9451 26.0251 95.0386 30.6615 104.132 39.0788C111.392 45.7945 116.031 54.1934 117.635 63.4561C112.954 61.7654 108.02 60.898 102.949 60.8805L102.238 60.8768C100.841 60.8932 99.4465 60.9783 98.0583 61.1319C97.8008 61.1568 97.5416 61.1964 97.2877 61.2295C96.6604 61.3087 96.0403 61.3953 95.4248 61.4993C95.1483 61.5417 94.879 61.5923 94.6062 61.643C93.9833 61.7618 93.3596 61.8944 92.7441 62.0389C92.5211 62.0887 92.2972 62.1393 92.0778 62.1927C91.3027 62.387 90.5303 62.6034 89.7688 62.841C89.7234 62.8548 89.6772 62.8658 89.631 62.8806C87.9217 63.4216 86.2482 64.0727 84.6205 64.83C84.577 64.8522 84.5332 64.8737 84.489 64.8944C83.7347 65.2471 82.9914 65.6247 82.2616 66.0271L82.0803 66.1247C78.2356 68.261 74.8188 70.9913 71.9749 74.2031L71.6205 74.6028C70.9968 75.3256 70.3875 76.0669 69.8182 76.8404C69.2324 77.6457 68.6772 78.4736 68.1538 79.3221C67.7343 79.994 67.3374 80.6801 66.9635 81.3792C66.1497 82.9005 65.4468 84.4802 64.8603 86.1058V86.1132C63.4376 90.0482 62.7448 94.2169 62.8169 98.4082C62.8205 98.5739 62.8205 98.7425 62.8242 98.9082C62.8341 99.2351 62.8523 99.562 62.8731 99.8898C62.9058 100.426 62.9475 100.962 63.0046 101.498C63.0399 101.832 63.0825 102.17 63.1288 102.509C63.156 102.72 63.1813 102.937 63.2167 103.152C63.3019 103.714 63.4007 104.275 63.5141 104.832C64.9228 111.727 68.3986 117.94 73.4073 123C75.2295 120.203 75.3292 119.619 77.174 114.303C72.7011 109.399 72.5977 104.79 72.5977 97.9763C72.5977 83.149 85.1163 70.8366 101.094 69.9443L102.103 69.9084C108.58 69.7574 114.961 71.5272 120.379 74.9407L124.022 72.5466L128 70.6782C128.011 56.3261 121.984 42.8377 111.027 32.6975C100.093 22.5757 85.5497 17 70.0349 17Z" fill="#4B4B4B" fill-opacity="0.8"/>
</svg>
