<svg width="585" height="126" viewBox="0 0 585 126" fill="none" xmlns="http://www.w3.org/2000/svg">
<path d="M77.3475 42.3356L91.5 30.5231L89.01 27.2629C83.3601 22.0908 76.5578 18.5005 69.234 16.8251C61.9101 15.1497 54.3019 15.4434 47.115 17.679C39.9558 19.9497 33.4629 24.0917 28.2446 29.7169C23.0264 35.3421 19.2536 42.2662 17.28 49.8405C17.055 50.7304 19.62 49.0687 20.7525 49.3995L40.3125 46.029C40.3125 46.029 41.265 45.0525 41.82 44.4146C50.52 34.4449 65.265 33.1376 75.3075 41.6269L77.3475 42.3356Z" fill="#4B4B4B"/>
<path d="M102.277 49.6129C100.024 40.9626 95.4097 33.1936 89.0025 27.2637L75.2775 41.5962C78.1314 44.0273 80.4204 47.1091 81.9707 50.6076C83.521 54.1062 84.2919 57.9296 84.225 61.7877V64.3313C90.975 64.3313 96.45 70.0407 96.45 77.0888C96.45 84.1212 90.975 89.8384 84.225 89.8384L59.7975 89.8148L57.36 90.0904V109.833L59.7975 110.25H84.225C91.0331 110.321 97.6824 108.091 103.192 103.891C108.702 99.6915 112.78 93.7434 114.825 86.9247C116.844 80.1155 116.712 72.8034 114.45 66.0792C112.187 59.355 107.915 53.579 102.27 49.6129H102.277Z" fill="#4B4B4B" fill-opacity="0.7"/>
<path d="M35.3325 110.242H59.775V89.8147H35.325C33.585 89.8147 31.8675 89.295 30.285 88.5469L26.85 89.6494L17.0025 99.8632L16.1475 103.383C21.6615 107.794 28.3934 110.199 35.325 110.235L35.3325 110.242Z" fill="#4B4B4B" fill-opacity="0.7"/>
<path d="M35.3325 43.8793C28.7269 43.9081 22.2942 46.0993 16.9304 50.1475C11.5666 54.1958 7.53863 59.8997 5.40751 66.4648C3.29887 73.0258 3.20161 80.1157 5.12942 86.7378C7.05722 93.3598 10.9131 99.181 16.155 103.383L30.33 88.5463C27.9215 87.4186 25.9287 85.4974 24.6535 83.0737C23.3784 80.65 22.8903 77.8559 23.2634 75.1148C23.6365 72.3737 24.8503 69.835 26.7209 67.8833C28.5916 65.9316 31.0171 64.6734 33.63 64.2992C36.2434 63.9055 38.908 64.4108 41.2252 65.7395C43.5424 67.0681 45.3877 69.1488 46.485 71.6702L60.66 56.8809C57.6737 52.814 53.8342 49.5252 49.4401 47.2702C45.046 45.0152 40.2233 43.8548 35.3325 43.8793Z" fill="#4B4B4B" fill-opacity="0.8"/>
<path d="M153.549 97.6836C148.786 97.6836 144.594 96.6354 140.971 94.5391C137.37 92.4199 134.556 89.4121 132.528 85.5156C130.523 81.5964 129.521 76.9593 129.521 71.6045C129.521 66.0902 130.569 61.3848 132.665 57.4883C134.761 53.569 137.61 50.5726 141.21 48.499C144.81 46.4255 148.855 45.3887 153.344 45.3887C157.195 45.3887 160.67 46.1178 163.769 47.5762C166.89 49.0345 169.442 51.0511 171.425 53.626C173.43 56.2008 174.66 59.1745 175.116 62.5469H164.213C163.507 60.1543 162.242 58.2858 160.419 56.9414C158.596 55.5742 156.295 54.8906 153.515 54.8906C149.618 54.8906 146.462 56.3376 144.047 59.2314C141.632 62.1025 140.424 66.1927 140.424 71.502C140.424 76.8112 141.609 80.9242 143.979 83.8408C146.371 86.7347 149.595 88.1816 153.651 88.1816C157.206 88.1816 159.997 87.2588 162.025 85.4131C164.076 83.5446 165.136 81.0267 165.204 77.8594H154.301V69.7588H175.629V76.1846C175.629 80.6507 174.683 84.4902 172.792 87.7031C170.901 90.916 168.292 93.3883 164.965 95.1201C161.638 96.8291 157.833 97.6836 153.549 97.6836ZM200.717 97.752C196.866 97.752 193.528 96.9316 190.702 95.291C187.899 93.6276 185.735 91.3262 184.208 88.3867C182.704 85.4245 181.952 81.9837 181.952 78.0645C181.952 74.1224 182.704 70.6702 184.208 67.708C185.735 64.7458 187.899 62.4443 190.702 60.8037C193.528 59.1403 196.866 58.3086 200.717 58.3086C204.59 58.3086 207.929 59.1403 210.731 60.8037C213.557 62.4443 215.722 64.7458 217.226 67.708C218.752 70.6702 219.516 74.1224 219.516 78.0645C219.516 81.9837 218.752 85.4245 217.226 88.3867C215.722 91.3262 213.557 93.6276 210.731 95.291C207.929 96.9316 204.59 97.752 200.717 97.752ZM192.719 77.9961C192.719 81.3229 193.391 84.0687 194.735 86.2334C196.08 88.3981 198.085 89.4805 200.751 89.4805C203.394 89.4805 205.388 88.3981 206.732 86.2334C208.077 84.0687 208.749 81.3229 208.749 77.9961C208.749 74.6693 208.077 71.9349 206.732 69.793C205.388 67.651 203.394 66.5801 200.751 66.5801C198.085 66.5801 196.08 67.651 194.735 69.793C193.391 71.9349 192.719 74.6693 192.719 77.9961ZM243.715 97.752C239.864 97.752 236.526 96.9316 233.7 95.291C230.897 93.6276 228.733 91.3262 227.206 88.3867C225.702 85.4245 224.95 81.9837 224.95 78.0645C224.95 74.1224 225.702 70.6702 227.206 67.708C228.733 64.7458 230.897 62.4443 233.7 60.8037C236.526 59.1403 239.864 58.3086 243.715 58.3086C247.589 58.3086 250.927 59.1403 253.729 60.8037C256.555 62.4443 258.72 64.7458 260.224 67.708C261.75 70.6702 262.514 74.1224 262.514 78.0645C262.514 81.9837 261.75 85.4245 260.224 88.3867C258.72 91.3262 256.555 93.6276 253.729 95.291C250.927 96.9316 247.589 97.752 243.715 97.752ZM235.717 77.9961C235.717 81.3229 236.389 84.0687 237.733 86.2334C239.078 88.3981 241.083 89.4805 243.749 89.4805C246.392 89.4805 248.386 88.3981 249.73 86.2334C251.075 84.0687 251.747 81.3229 251.747 77.9961C251.747 74.6693 251.075 71.9349 249.73 69.793C248.386 67.651 246.392 66.5801 243.749 66.5801C241.083 66.5801 239.078 67.651 237.733 69.793C236.389 71.9349 235.717 74.6693 235.717 77.9961ZM286.61 112.107C281.461 112.107 277.416 111.082 274.477 109.031C271.56 107.003 269.794 104.474 269.179 101.443L278.954 100.145C279.387 101.307 280.219 102.321 281.449 103.187C282.702 104.052 284.503 104.485 286.85 104.485C289.151 104.485 291.054 103.927 292.558 102.811C294.062 101.717 294.813 99.8597 294.813 97.2393V90.2324H294.335C293.651 91.8275 292.421 93.263 290.644 94.5391C288.889 95.8151 286.485 96.4531 283.432 96.4531C280.583 96.4531 277.986 95.7923 275.639 94.4707C273.292 93.1263 271.423 91.0755 270.033 88.3184C268.643 85.5612 267.948 82.0749 267.948 77.8594C267.948 73.5072 268.655 69.8841 270.067 66.9902C271.503 64.0964 273.394 61.9316 275.741 60.4961C278.088 59.0378 280.663 58.3086 283.466 58.3086C285.585 58.3086 287.374 58.6732 288.832 59.4023C290.29 60.1087 291.464 60.9974 292.353 62.0684C293.264 63.1393 293.959 64.1989 294.438 65.2471H294.848V58.7871H305.238V97.4102C305.238 100.646 304.441 103.357 302.846 105.545C301.251 107.732 299.052 109.373 296.249 110.467C293.469 111.561 290.256 112.107 286.61 112.107ZM278.783 77.791C278.783 81.0723 279.467 83.6813 280.834 85.6182C282.224 87.5322 284.218 88.4893 286.815 88.4893C289.368 88.4893 291.339 87.5436 292.729 85.6523C294.141 83.7611 294.848 81.1406 294.848 77.791C294.848 74.4414 294.153 71.764 292.763 69.7588C291.373 67.7308 289.39 66.7168 286.815 66.7168C284.195 66.7168 282.201 67.7536 280.834 69.8271C279.467 71.8779 278.783 74.5326 278.783 77.791ZM324.311 46.0723V97H313.715V46.0723H324.311ZM350.185 97.752C346.265 97.752 342.893 96.9544 340.067 95.3594C337.242 93.7643 335.066 91.4971 333.539 88.5576C332.012 85.5954 331.249 82.0977 331.249 78.0645C331.249 74.1452 332.001 70.7044 333.505 67.7422C335.032 64.7799 337.174 62.4671 339.931 60.8037C342.688 59.1403 345.935 58.3086 349.672 58.3086C353.044 58.3086 356.086 59.0264 358.798 60.4619C361.532 61.8975 363.697 64.0508 365.292 66.9219C366.91 69.793 367.719 73.3932 367.719 77.7227V80.5938H341.674C341.788 83.4876 342.631 85.7549 344.203 87.3955C345.775 89.0361 347.826 89.8564 350.355 89.8564C352.11 89.8564 353.614 89.4805 354.867 88.7285C356.143 87.9766 357.055 86.8828 357.602 85.4473L367.377 86.0967C366.625 89.6058 364.745 92.4313 361.737 94.5732C358.752 96.6924 354.901 97.752 350.185 97.752ZM341.742 74.0654H357.567C357.317 71.6501 356.542 69.736 355.243 68.3232C353.944 66.9105 352.121 66.2041 349.774 66.2041C347.405 66.2041 345.525 66.9447 344.135 68.4258C342.768 69.8841 341.97 71.764 341.742 74.0654ZM413.964 97.6836C409.429 97.6836 405.373 96.6582 401.796 94.6074C398.218 92.5566 395.393 89.583 393.319 85.6865C391.269 81.79 390.243 77.0846 390.243 71.5703C390.243 66.0104 391.28 61.2822 393.354 57.3857C395.45 53.4893 398.287 50.5156 401.864 48.4648C405.465 46.4141 409.498 45.3887 413.964 45.3887C417.906 45.3887 421.449 46.1178 424.594 47.5762C427.761 49.0345 430.347 51.1423 432.353 53.8994C434.358 56.6566 435.588 59.9948 436.044 63.9141H425.175C424.765 61.1113 423.568 58.9124 421.586 57.3174C419.604 55.6995 417.143 54.8906 414.203 54.8906C410.284 54.8906 407.128 56.349 404.735 59.2656C402.343 62.1595 401.146 66.2611 401.146 71.5703C401.146 76.9935 402.343 81.1178 404.735 83.9434C407.151 86.7689 410.295 88.1816 414.169 88.1816C417.017 88.1816 419.433 87.4297 421.415 85.9258C423.42 84.4219 424.674 82.3141 425.175 79.6025H436.044C435.657 82.7243 434.54 85.6637 432.694 88.4209C430.871 91.1781 428.376 93.4111 425.209 95.1201C422.064 96.8291 418.316 97.6836 413.964 97.6836ZM454.193 46.0723V97H443.598V46.0723H454.193ZM479.896 97.752C476.046 97.752 472.707 96.9316 469.882 95.291C467.079 93.6276 464.914 91.3262 463.388 88.3867C461.884 85.4245 461.132 81.9837 461.132 78.0645C461.132 74.1224 461.884 70.6702 463.388 67.708C464.914 64.7458 467.079 62.4443 469.882 60.8037C472.707 59.1403 476.046 58.3086 479.896 58.3086C483.77 58.3086 487.108 59.1403 489.911 60.8037C492.737 62.4443 494.901 64.7458 496.405 67.708C497.932 70.6702 498.695 74.1224 498.695 78.0645C498.695 81.9837 497.932 85.4245 496.405 88.3867C494.901 91.3262 492.737 93.6276 489.911 95.291C487.108 96.9316 483.77 97.752 479.896 97.752ZM471.898 77.9961C471.898 81.3229 472.571 84.0687 473.915 86.2334C475.259 88.3981 477.265 89.4805 479.931 89.4805C482.574 89.4805 484.568 88.3981 485.912 86.2334C487.257 84.0687 487.929 81.3229 487.929 77.9961C487.929 74.6693 487.257 71.9349 485.912 69.793C484.568 67.651 482.574 66.5801 479.931 66.5801C477.265 66.5801 475.259 67.651 473.915 69.793C472.571 71.9349 471.898 74.6693 471.898 77.9961ZM530.141 80.7646V58.7871H540.736V97H530.551V90.0615H530.141C529.298 92.2946 527.873 94.0947 525.868 95.4619C523.886 96.8291 521.459 97.5013 518.588 97.4785C514.737 97.5013 511.615 96.2367 509.223 93.6846C506.853 91.1097 505.668 87.5892 505.668 83.123V58.7871H516.264V81.2773C516.264 83.5104 516.868 85.2878 518.075 86.6094C519.283 87.9082 520.889 88.5462 522.895 88.5234C524.786 88.5462 526.461 87.8968 527.919 86.5752C529.4 85.2536 530.141 83.3167 530.141 80.7646ZM563.192 97.6152C560.276 97.6152 557.644 96.8633 555.297 95.3594C552.95 93.8555 551.093 91.6452 549.726 88.7285C548.358 85.7891 547.675 82.2002 547.675 77.9619C547.675 73.5869 548.381 69.9411 549.794 67.0244C551.207 64.1077 553.087 61.9316 555.434 60.4961C557.781 59.0378 560.344 58.3086 563.124 58.3086C565.266 58.3086 567.055 58.6732 568.49 59.4023C569.926 60.1087 571.088 60.9974 571.977 62.0684C572.865 63.1393 573.537 64.1989 573.993 65.2471H574.301V46.0723H584.896V97H574.472V90.8818H573.993C573.515 91.93 572.82 92.9782 571.908 94.0264C570.997 95.0518 569.823 95.9062 568.388 96.5898C566.975 97.2734 565.243 97.6152 563.192 97.6152ZM574.54 77.9277C574.54 74.5098 573.845 71.7868 572.455 69.7588C571.065 67.7308 569.083 66.7168 566.508 66.7168C563.887 66.7168 561.894 67.7536 560.526 69.8271C559.182 71.9007 558.51 74.6009 558.51 77.9277C558.51 81.2318 559.193 83.9434 560.561 86.0625C561.928 88.1589 563.91 89.207 566.508 89.207C569.06 89.207 571.031 88.1702 572.421 86.0967C573.834 84.0231 574.54 81.3001 574.54 77.9277Z" fill="#4B4B4B" fill-opacity="0.8"/>
</svg>
