<svg width="300" height="300" viewBox="0 0 300 300" fill="none" xmlns="http://www.w3.org/2000/svg">
<path d="M31.6406 194.531H268.359M31.6406 182.227H268.359M137.109 169.336H255.469M45.1172 169.336H117.773M45.1172 156.445H255.469M45.1172 144.141H255.469M137.109 131.25H255.469M45.1172 131.25H117.773M31.6406 118.359H268.359M31.6406 105.469H268.359" stroke="#4B4B4B" stroke-width="12"/>
<path d="M65 124.462H97.9072V174.308H65V124.462ZM84.3918 98.6154V200.769H77.9278V98.6154H84.3918ZM200.155 98.6154L216.608 145.385L231.887 98.6154H200.155ZM196.629 142.923V200.769H236V142.923L216.608 200.154L196.629 142.923ZM134.928 99.2308C154.907 99.2308 171.361 129.385 144.918 149.692C170.773 169.385 155.495 200.154 134.928 200.154V202H163.722V179.846L176.649 173.692V126.308L163.722 120.154V98H134.928V99.2308Z" fill="white"/>
</svg>
