<svg width="601" height="93" viewBox="0 0 601 93" fill="none" xmlns="http://www.w3.org/2000/svg">
<path d="M255.6 59.2998C249.5 59.2998 243 55.0998 243 45.7998C243 36.4998 249.5 32.2998 255.6 32.2998C261.7 32.2998 268.2 36.4998 268.2 45.7998C268.2 55.0998 261.7 59.2998 255.6 59.2998ZM278.1 45.8998C278.1 31.2998 267.2 22.6998 255 22.6998C242.8 22.6998 232.9 32.2998 232.9 45.8998C232.9 58.8998 242 68.3998 253.6 69.0998C255.4 69.1998 263.3 69.0998 269.5 62.4998H269.7L276.9 69.0998H278.3V46.2998C278.2 46.2998 278.1 45.8998 278.1 45.8998ZM345.2 0.399811C348.8 0.399811 351.7 3.29981 351.7 6.89981C351.7 10.4998 348.8 13.3998 345.2 13.3998C341.8 13.3998 338.9 10.4998 338.9 6.89981C338.9 3.29981 341.7 0.399811 345.2 0.399811ZM340.6 69.0998H350V22.7998H340.6V69.0998ZM392 53.0998C389.7 57.3998 385.3 59.3998 381.1 59.3998C375 59.3998 368.5 55.1998 368.5 45.8998C368.5 36.5998 375 32.3998 381.1 32.3998C385.3 32.3998 389.7 34.3998 392 38.5998L400.7 33.4998C396.7 26.4998 389.4 22.4998 381.1 22.4998C368.9 22.4998 358.4 31.5998 358.4 45.6998C358.4 59.8998 368.8 68.9998 381.1 68.9998C389.4 68.9998 396.7 64.9998 400.7 57.9998L392 53.0998ZM205.3 21.7998C201.7 21.7998 198.2 22.7998 195.4 24.4998C194.2 25.2998 191.8 27.0998 190.8 28.8998H190.6C189.6 27.0998 187.2 25.2998 186 24.4998C183.1 22.6998 179.7 21.7998 176.1 21.7998C165.3 21.7998 156.5 30.7998 156.5 41.7998V68.6998H166.5V41.7998C166.5 36.3998 170.8 31.8998 176.2 31.8998C181.5 31.8998 185.9 36.2998 185.9 41.7998V68.6998H195.8V41.7998C195.8 36.3998 200.1 31.8998 205.5 31.8998C210.8 31.8998 215.2 36.2998 215.2 41.7998V68.6998H225.2V41.7998C224.9 30.6998 216.1 21.7998 205.3 21.7998ZM443 68.6998C433.4 68.6998 425.7 62.6998 425.7 51.5998V10.0998H435.4V50.7998C435.4 56.1998 438.4 58.8998 443 58.8998V68.6998ZM577.4 59.9998C571.3 59.9998 564.8 55.7998 564.8 46.4998C564.8 37.1998 571.3 32.9998 577.4 32.9998C583.5 32.9998 590 37.1998 590 46.4998C589.9 55.7998 583.4 59.9998 577.4 59.9998ZM600.1 46.3998C600.1 32.2998 589.7 23.1998 577.4 23.1998C565.7 23.1998 555.6 31.4998 554.7 44.3998V92.2998H564.1V63.0998C568 68.7998 575.6 69.4998 578.1 69.5998H579H578.9C589.6 69.3998 600.1 60.5998 600.1 46.3998ZM523.4 59.8998C517.3 59.8998 510.8 55.6998 510.8 46.3998C510.8 37.0998 517.3 32.8998 523.4 32.8998C529.5 32.8998 536 37.0998 536 46.3998C535.9 55.7998 529.4 59.8998 523.4 59.8998ZM545.8 46.3998C545.8 31.7998 534.9 23.1998 522.7 23.1998C510.5 23.1998 500.6 32.7998 500.6 46.3998C500.6 59.5998 509.9 68.9998 521.6 69.5998H522.5C523.9 69.5998 526.2 69.3998 528.9 68.3998C529.6 68.1998 530.2 67.7998 530.9 67.4998C532.8 66.4998 534.8 65.0998 536.6 63.0998H536.8L544.4 69.4998H545.8V46.3998ZM471.1 32.5998C477.2 32.5998 481.6 36.1998 483.4 41.0998H459C460.8 35.9998 465.2 32.5998 471.1 32.5998ZM481.7 54.3998C479.4 57.6998 475.6 59.6998 471.1 59.6998C464.2 59.6998 459.5 55.2998 458.3 49.4998H493.7C493.8 48.4998 493.9 47.3998 493.9 46.3998C493.9 33.5998 483.7 23.0998 471.1 23.0998C458.5 23.0998 448.3 33.5998 448.3 46.3998C448.3 59.1998 458.5 69.6998 471.1 69.6998C479.5 69.6998 486.7 65.0998 490.7 58.2998L481.7 54.3998ZM308.2 59.3998C302.1 59.3998 295.6 55.1998 295.6 45.8998C295.6 36.5998 302.1 32.3998 308.2 32.3998C314.3 32.3998 320.9 36.5998 320.9 45.8998C321 55.2998 314.4 59.3998 308.2 59.3998ZM330.9 45.7998C330.9 31.6998 320.4 22.7998 308.2 22.7998C296 22.7998 285.5 31.8998 285.5 45.9998C285.5 60.1998 296 69.2998 307.5 69.2998H308.8C312.6 68.8998 316.3 67.3998 319.2 64.7998L319.8 64.1998C320.5 63.3998 321 62.3998 321.2 61.4998V68.4998C321.2 68.4998 321.4 73.6998 318 77.6998C315.6 80.6998 311.8 82.1998 308.3 82.1998C303.8 82.1998 298.9 79.7998 296.8 74.7998L287.5 78.6998C291.1 86.9998 299.1 91.9998 308.1 91.9998C320.4 91.9998 330.8 82.8998 330.8 68.7998L330.9 45.7998ZM108.5 34.5998C103.4 14.8998 85.8 0.299805 64.9 0.299805C44 0.299805 26.4 14.8998 21.3 34.5998C10.9 43.7998 3.5 55.8998 0.0999985 69.2998C7.5 66.6998 15.1 64.5998 22.9 63.1998C29.5 80.3998 45.8 92.4998 64.9 92.4998C84.1 92.4998 100.4 80.3998 106.9 63.1998C115.3 64.7998 122.9 66.7998 129.7 69.2998C126.3 55.8998 118.9 43.7998 108.5 34.5998ZM51 33.7998C49 40.2998 43.1 44.0998 37.9 42.3998C32.6 40.6998 30 34.1998 31.9 27.6998C33.8 21.1998 39.8 17.3998 45 19.0998C50.2 20.6998 52.9 27.3998 51 33.7998ZM91.7 42.3998C86.4 44.0998 80.6 40.1998 78.6 33.7998C76.6 27.2998 79.3 20.7998 84.6 19.0998C89.9 17.3998 95.7 21.2998 97.7 27.6998C99.8 34.1998 97.1 40.6998 91.7 42.3998Z" fill="#4B4B4B" fill-opacity="0.8"/>
</svg>
