<svg width="300" height="150" viewBox="0 0 300 150" fill="none" xmlns="http://www.w3.org/2000/svg">
<g clip-path="url(#clip0_236_530)">
<path d="M46.6035 35.8105L23.2999 17.9243L-3.05176e-05 35.8105V17.9243L23.3036 0.0380859L46.6072 17.9243V35.8105H46.6035Z" fill="#4B4B4B"/>
<path d="M12.2086 45.651V77.1874C12.2086 85.3354 17.9305 89.3079 23.3036 89.3079C28.7217 89.3079 34.4024 85.2319 34.4024 77.0798V45.651H46.6072V77.9404C46.6072 85.447 44.3875 91.2363 39.9517 95.2087C35.5085 99.1772 29.9629 101.11 23.1986 101.11C16.4419 101.11 10.8925 99.1812 6.55798 95.2087C2.21972 91.2403 -3.05176e-05 85.6661 -3.05176e-05 78.2592V45.651H12.2086ZM152.139 84.8454L161.206 90.4115C155.675 97.1133 148.3 101.002 139.031 101.002C131.059 101.002 124.501 98.4281 119.559 93.3879C114.617 88.3437 112.097 81.5822 112.097 73.1074V72.685C112.097 64.0987 114.617 57.2336 119.559 51.9782C124.606 46.7228 130.965 44.1489 138.731 44.1489C146.099 44.1489 152.147 46.7228 156.785 51.9782C161.528 57.2336 163.849 63.6724 163.849 71.3981C163.849 73.8883 163.583 76.5379 163.583 76.5379H124.145C124.808 84.7537 130.68 90.0609 139.436 90.0609C144.235 90.0609 148.446 88.3437 152.139 84.8454ZM128.944 58.5245C126.342 60.6761 124.846 63.3217 124.456 66.4614H151.528C151.415 63.4253 150.114 60.7837 147.707 58.6321C145.18 56.2694 142.255 55.09 138.727 55.09C134.996 55.09 131.663 56.2694 128.94 58.5206L128.944 58.5245ZM275.017 108.289C270.067 120.725 264.885 124.952 256.94 124.952H251.432V113.445H255.886C258.62 113.445 261.158 112.354 263.58 106.413L266.003 100.464L245.117 45.651H257.529L272.358 85.1283L287.593 45.651H300L275.02 108.289H275.017ZM94.1294 24.9521H106.237V99.7151H94.1294V94.7386C91.3697 97.444 86.1465 100.894 77.8862 100.894C70.7283 100.894 64.6727 98.213 59.7308 92.846C54.8863 87.3754 52.4678 80.7255 52.4678 72.6771C52.4678 64.6326 54.8863 57.9827 59.7308 52.6157C64.6727 47.1491 70.7245 44.4676 77.8862 44.4676C83.9043 44.4676 90.1286 46.7348 94.1294 50.5478V24.9521ZM95.0405 72.685C95.0405 67.9596 93.522 63.9911 90.4961 60.8833C87.5714 57.7715 83.8406 56.1618 79.4985 56.1618C75.1603 56.1618 71.6319 57.7715 68.7073 60.8833C65.8838 63.9911 64.4702 67.9596 64.4702 72.685C64.4702 77.4025 65.8876 81.371 68.7073 84.4828C71.6319 87.5946 75.1603 89.2043 79.4985 89.2043C83.8406 89.2043 87.5714 87.5946 90.4961 84.4828C93.522 81.371 95.0405 77.4025 95.0405 72.685ZM226.298 44.5832C236.827 44.5832 243.955 52.1495 243.955 66.2463V99.7151H231.848V68.0671C231.848 60.6681 228.518 56.0542 222.766 56.0542C216.816 56.0542 212.684 61.206 212.684 68.605V99.7191H200.677V68.0751C200.677 60.6721 197.352 56.0582 191.596 56.0582C185.953 56.0582 181.712 61.3136 181.712 68.609V99.7191H169.71V45.659H181.712V51.2809C183.853 48.4919 188.146 44.5792 195.432 44.5792C204.048 44.5792 207.738 49.8864 209.046 52.544C212.324 48.6353 217.101 44.5792 226.298 44.5792V44.5832Z" fill="#4B4B4B" fill-opacity="0.8"/>
</g>
<defs>
<clipPath id="clip0_236_530">
<rect width="300" height="150" fill="white"/>
</clipPath>
</defs>
</svg>
