<svg width="400" height="106" viewBox="0 0 400 106" fill="none" xmlns="http://www.w3.org/2000/svg">
<path d="M162.832 0C171.775 0 179.01 7.1962 179.156 16.0538L179.158 16.3255V70.1096C179.21 79.0005 172.014 86.2348 163.208 86.4313L162.938 86.4351H145.397L151.156 105.614L122.414 86.4351H16.3255C7.38224 86.4351 0.14747 79.2389 0.00222599 70.3813L0 70.1096V16.3255C0 7.38224 7.1962 0.14747 16.0538 0.00222599L16.3255 0H162.832ZM380.98 28.7412C385.471 28.7412 389.328 30.4847 392.551 33.9189L393.026 30.5904C393.079 30.0621 393.237 29.6922 393.449 29.4809C393.66 29.2696 393.977 29.1639 394.4 29.1639H398.943C399.63 29.1639 400 29.5866 400 30.3791V58.1165C399.842 62.396 399.049 65.883 397.517 68.736C395.932 71.589 393.819 73.7551 391.071 75.2345C388.324 76.7138 385.154 77.4006 381.614 77.4006C379.237 77.4006 376.912 76.9779 374.64 76.1854C372.315 75.3929 370.361 74.2835 368.723 72.9098C368.406 72.6456 368.247 72.3815 368.247 72.0645C368.247 71.8531 368.353 71.589 368.617 71.2191L370.995 67.785C371.259 67.4151 371.576 67.2038 371.998 67.2038C372.315 67.2038 372.632 67.3095 373.002 67.5736C375.485 69.3171 378.55 70.1625 382.301 70.1625C384.203 70.1625 385.894 69.7398 387.373 68.8945C388.852 68.102 390.067 66.8868 390.86 65.4075C391.705 63.9281 392.128 62.2375 392.128 60.3355V60.2298C390.543 61.9205 388.852 63.1885 387.109 64.0338C385.365 64.8791 383.305 65.3018 380.98 65.3018C377.863 65.3018 374.904 64.5621 372.21 62.9771C369.462 61.445 367.296 59.2788 365.658 56.5315C364.021 53.7842 363.175 50.667 363.228 47.18C363.228 43.9044 364.021 40.84 365.658 38.0399C367.296 35.2397 369.462 32.9679 372.21 31.2772C374.957 29.5866 377.863 28.7412 380.98 28.7412ZM112.218 29.0054C108.784 29.0054 105.666 29.7979 102.866 31.4886C100.066 33.1792 97.8999 35.3982 96.3149 38.2512C94.7299 41.0514 93.9374 44.1685 93.9374 47.5499C93.9374 50.8784 94.7827 53.9427 96.4734 56.7957C98.164 59.6487 100.436 61.8677 103.289 63.5583C106.142 65.1961 109.206 66.0415 112.429 66.0415C114.807 66.0415 117.078 65.6188 119.139 64.8263C121.252 63.981 123.313 62.6602 125.426 60.811C125.69 60.5468 125.849 60.2827 125.849 59.9657C125.849 59.7345 125.727 59.5034 125.555 59.2368L125.479 59.1203L122.573 55.5805C122.414 55.3163 122.203 55.2107 121.886 55.2107C121.701 55.2107 121.476 55.2511 121.245 55.4028L121.146 55.4748L120.301 56.1088C119.667 56.6372 118.98 57.1127 118.241 57.5353C117.607 57.9052 116.814 58.2222 115.863 58.4863C114.859 58.7505 113.75 58.909 112.429 58.909C110.738 58.909 109.153 58.5392 107.674 57.8523C106.195 57.1655 104.927 56.1617 103.923 54.8937C102.986 53.7102 102.279 52.3427 101.888 50.791L101.81 50.4557H127.169C127.909 50.5085 128.49 50.4557 128.86 50.35C129.177 50.2972 129.494 50.033 129.705 49.6104C129.917 49.1877 130.022 48.5009 130.022 47.6027C130.022 43.5345 129.124 40.1004 127.328 37.3002C125.532 34.5001 123.26 32.4396 120.512 31.0659C117.765 29.6922 115.018 29.0054 112.218 29.0054ZM238.225 29.0054C241.025 29.0054 243.825 29.6922 246.52 31.0659C249.267 32.4396 251.539 34.5001 253.335 37.3002C255.131 40.1004 256.03 43.5345 256.03 47.6027C256.03 48.5009 255.924 49.1877 255.713 49.6104C255.501 50.033 255.184 50.2972 254.867 50.35C254.497 50.4557 253.916 50.5085 253.177 50.5085H227.87C228.239 52.1992 228.979 53.6785 229.983 54.9465C230.987 56.2145 232.255 57.2183 233.734 57.9052C235.213 58.592 236.798 58.9618 238.542 58.9618C239.863 58.9618 240.972 58.8033 241.976 58.5392C242.927 58.275 243.719 57.958 244.353 57.5882C245.093 57.1655 245.78 56.69 246.414 56.1617L247.259 55.5277C247.365 55.2635 247.629 55.2107 247.893 55.2107C248.21 55.2107 248.422 55.3163 248.58 55.5805L251.486 59.1203C251.697 59.4373 251.856 59.7015 251.856 59.9657C251.856 60.2827 251.697 60.5468 251.433 60.811C249.32 62.6602 247.259 63.981 245.146 64.8263C243.033 65.6716 240.814 66.0415 238.436 66.0415C235.213 66.0415 232.149 65.1961 229.296 63.5583C226.443 61.8677 224.171 59.6487 222.481 56.7957C220.79 53.9427 219.945 50.8784 219.945 47.5499C219.945 44.1685 220.737 41.0514 222.322 38.2512C223.907 35.3982 226.073 33.1792 228.873 31.4886C231.673 29.7979 234.791 29.0054 238.225 29.0054ZM28.5827 23.4051H22.4013C22.2428 23.4051 22.0843 23.4579 21.9786 23.5108C21.8729 23.5636 21.7673 23.6693 21.6616 23.7749C21.4767 23.9598 21.3727 24.1852 21.3496 24.451L21.3446 24.5674V48.6065C21.3446 52.4633 22.1371 55.6862 23.7221 58.275C25.3071 60.8638 27.4204 62.8187 30.1149 64.0866C32.8094 65.3546 35.7681 65.9886 39.0437 65.9886C42.3194 65.9886 45.3309 65.4075 47.9725 64.1395C50.6142 62.9243 52.7275 60.9695 54.3125 58.3807C55.8388 55.8368 56.6302 52.7541 56.6867 49.0853L56.69 48.6594V24.5674C56.7428 24.4089 56.69 24.2504 56.6372 24.0919C56.5843 23.9863 56.4787 23.8278 56.373 23.7221C56.1881 23.5372 55.9223 23.4332 55.6109 23.4101L55.4748 23.4051H49.6104C49.2405 23.4051 48.9764 23.5108 48.765 23.7221C48.5801 23.907 48.4761 24.1324 48.453 24.4336L48.448 24.5674V48.7122C48.448 50.667 48.0254 52.3577 47.18 53.8898C46.3875 55.3692 45.2252 56.5315 43.7987 57.3768C42.3722 58.1693 40.7872 58.592 39.0437 58.592C37.3002 58.592 35.7681 58.2222 34.3416 57.4297C32.9151 56.69 31.8056 55.5277 30.9602 54.0483C30.1646 52.656 29.7434 50.9829 29.6966 49.0731L29.6922 48.7122V24.5674C29.6922 24.1976 29.5866 23.9334 29.4281 23.7221C29.2696 23.5108 28.9526 23.4051 28.5827 23.4051ZM75.8156 28.7941C73.3325 28.7941 71.1663 29.2696 69.2643 30.2734C67.3623 31.2772 65.9358 32.5452 64.8791 34.1302C63.8753 35.7152 63.347 37.3002 63.347 38.9381C63.347 40.9457 63.7168 42.6892 64.5093 44.1157C65.3018 45.5422 66.4641 46.7574 68.0491 47.7612C69.6341 48.765 71.6946 49.6632 74.2834 50.4557C75.2624 50.7354 75.9123 50.9328 76.1606 51.0117L76.2383 51.0369C77.5063 51.4067 78.4573 51.7237 79.0384 51.9879C79.6724 52.252 80.1479 52.569 80.4649 53.0445C80.8348 53.52 80.9933 54.154 80.9933 54.9993C80.9933 55.7918 80.6763 56.5315 80.0951 57.1655C79.4611 57.7995 78.7214 58.275 77.7704 58.6448C76.8723 58.9618 75.8684 59.1732 74.9174 59.1732C73.3325 59.1732 72.0116 58.8033 70.955 58.0637C69.8983 57.324 68.8945 56.3202 67.9963 55.0522C67.6793 54.6295 67.3623 54.4182 66.9925 54.4182C66.7811 54.4182 66.5698 54.5238 66.3585 54.6295L62.713 57.2183C62.396 57.5353 62.2375 57.8523 62.2375 58.2222C62.2375 58.3807 62.2903 58.592 62.3432 58.7505C62.4488 58.9618 62.5545 59.1732 62.6602 59.3845C63.981 61.445 65.7773 63.0828 67.9963 64.2451C70.2153 65.4075 72.7513 65.9886 75.5514 65.9886C77.7704 65.9886 79.9366 65.566 81.9971 64.7735C84.0576 63.9281 85.6954 62.713 87.0163 61.0223C88.2842 59.3845 88.9182 57.3768 88.9182 54.9993C88.9182 52.5162 88.1257 50.2444 86.5407 48.2895C84.9558 46.2819 82.5783 44.8554 79.3554 43.8515C78.9328 43.693 78.5629 43.5874 78.1931 43.4817C77.8233 43.376 77.5063 43.2704 77.2421 43.2175C75.6571 42.7949 74.4948 42.425 73.7551 42.108C73.0154 41.791 72.3815 41.4212 71.9588 40.9985C71.4833 40.523 71.272 39.9419 71.272 39.1494C71.272 38.1456 71.6946 37.3531 72.54 36.7191C73.3853 36.0851 74.5476 35.7681 76.0269 35.7681C77.4534 35.7681 78.6158 36.0322 79.5668 36.5077C80.5178 36.9832 81.4159 37.7757 82.3141 38.7796C82.6311 39.1494 82.8953 39.3607 83.2123 39.3607C83.4236 39.3607 83.6878 39.2551 83.9519 38.9909L87.2804 36.2436C87.6502 35.9266 87.8616 35.6624 87.8616 35.3982C87.8616 35.1869 87.7031 34.8699 87.4389 34.4472C86.1709 32.8622 84.5859 31.4886 82.6839 30.4319C80.7819 29.3224 78.5101 28.7941 75.8156 28.7941ZM271.88 28.6356C274.521 28.6356 276.846 29.1639 278.748 30.2734C280.65 31.3829 282.235 32.7037 283.503 34.2887C283.82 34.6586 283.926 34.9756 283.926 35.2397C283.926 35.5039 283.714 35.8209 283.344 36.0851L280.016 38.8324C279.699 39.0437 279.488 39.2022 279.276 39.2022C279.012 39.2022 278.695 38.9909 278.378 38.6211C277.533 37.6172 276.582 36.8776 275.631 36.3492C274.68 35.8737 273.465 35.6096 272.091 35.6096C270.612 35.6096 269.449 35.9266 268.604 36.5606C267.759 37.1946 267.336 37.9871 267.336 38.9909C267.336 39.7834 267.547 40.3645 268.023 40.84C268.498 41.3155 269.079 41.6854 269.819 41.9495C270.559 42.2665 271.774 42.5835 273.306 43.059C273.623 43.1119 273.94 43.2175 274.257 43.3232C274.627 43.4289 274.997 43.5345 275.419 43.693C278.642 44.644 281.02 46.1234 282.605 48.131C284.19 50.1387 284.982 52.3577 284.982 54.8408C284.982 57.1655 284.348 59.1732 283.08 60.8638C281.812 62.5017 280.122 63.7696 278.061 64.615C276.001 65.4603 273.834 65.883 271.615 65.8301C268.815 65.8301 266.279 65.249 264.06 64.0866C261.841 62.9243 260.098 61.2865 258.724 59.226C258.671 59.1732 258.566 58.9618 258.46 58.7505C258.407 58.592 258.354 58.3807 258.354 58.2222C258.354 57.8523 258.513 57.5353 258.83 57.2183L262.422 54.471C262.581 54.3125 262.792 54.2068 263.056 54.2597C263.426 54.2597 263.796 54.471 264.06 54.8937C264.958 56.1617 265.962 57.1655 267.019 57.9052C268.076 58.6448 269.396 59.0147 270.981 59.0147C271.985 59.0147 272.936 58.8562 273.834 58.4863C274.785 58.1165 275.578 57.641 276.159 57.007C276.74 56.373 277.057 55.6333 277.057 54.8408C277.057 53.9955 276.899 53.3615 276.529 52.886C276.159 52.4105 275.684 52.0935 275.102 51.8293C274.521 51.5652 273.57 51.2482 272.302 50.8784C272.091 50.8255 271.457 50.667 270.347 50.2972C267.759 49.5047 265.698 48.6065 264.113 47.6027C262.528 46.5989 261.366 45.3837 260.573 43.9572C259.781 42.5307 259.411 40.7872 259.411 38.7796C259.411 37.1417 259.939 35.5567 260.943 33.9717C261.947 32.3867 263.426 31.1187 265.328 30.1149C267.23 29.1111 269.396 28.6356 271.88 28.6356ZM299.3 20.4993C299.406 20.4993 299.564 20.5521 299.67 20.6049C299.775 20.6578 299.881 20.7634 299.934 20.8691C300.092 21.0804 300.145 21.3974 300.145 21.7673V29.4809L304.372 29.5337C305.164 29.5337 305.587 29.9564 305.587 30.7489V35.3982C305.587 35.7681 305.481 36.0851 305.217 36.2964C304.953 36.5077 304.636 36.6134 304.266 36.6134H300.198V54.2068C300.198 55.4748 300.409 56.4787 300.885 57.2712C301.36 58.0108 302.153 58.4335 303.262 58.4863L304.161 58.5392C304.795 58.592 305.217 58.7505 305.376 59.0675C305.534 59.3845 305.64 59.7543 305.587 60.1242V64.1395C305.587 65.0905 304.847 65.566 303.421 65.566C301.202 65.566 299.247 65.1433 297.556 64.298C295.813 63.4527 294.492 62.2375 293.541 60.6525C292.59 59.0675 292.115 57.2183 292.115 55.105V36.6662H288.839C288.522 36.6662 288.205 36.5606 287.994 36.3492C287.73 36.1379 287.624 35.8209 287.624 35.4511V30.8546C287.624 30.4319 287.73 30.1149 287.994 29.8507C288.205 29.6394 288.522 29.5337 288.839 29.5337H292.115V23.6164C292.115 23.1938 292.167 22.9296 292.326 22.7183C292.484 22.5069 292.801 22.4013 293.224 22.2428L298.983 20.5521C299.089 20.4993 299.194 20.4993 299.3 20.4993ZM152.635 28.8997C150.839 28.8997 149.201 29.3224 147.722 30.1677C146.242 31.0131 145.027 32.1754 144.076 33.7076L143.495 30.5904C143.389 30.0092 143.231 29.6394 142.914 29.4809C142.65 29.3224 142.28 29.2696 141.751 29.2696H137.683C136.944 29.2696 136.574 29.6922 136.574 30.4847V64.1923C136.574 64.9848 136.944 65.3546 137.683 65.3546H143.495C144.287 65.3546 144.657 64.9848 144.657 64.1923V44.4327C144.657 42.6364 144.974 41.157 145.661 39.9419C146.348 38.7267 147.193 37.8286 148.303 37.2474C149.359 36.6662 150.522 36.3492 151.737 36.3492C152.952 36.3492 154.062 36.5606 155.118 36.9832C156.175 37.4587 157.179 37.9871 158.13 38.6211C158.447 38.8324 158.764 38.9909 159.028 38.9909C159.345 38.9909 159.556 38.8324 159.82 38.5154L162.462 34.7642C162.673 34.5001 162.779 34.2359 162.779 33.9717C162.779 33.6019 162.568 33.2321 162.145 32.8094C161.088 31.9112 159.715 31.0131 158.024 30.1677C156.386 29.3224 154.59 28.8997 152.635 28.8997ZM219.786 23.4051C220.526 23.4051 220.896 23.7749 220.896 24.5146V29.8507C220.896 30.5904 220.526 31.0131 219.786 31.0131H208.638V64.2451C208.638 64.9848 208.268 65.3546 207.529 65.3546H201.453C200.713 65.3546 200.343 64.9848 200.343 64.2451V30.9602H189.513C188.773 30.9602 188.403 30.5904 188.403 29.7979V24.5146C188.456 23.7749 188.826 23.4051 189.565 23.4051H219.786ZM318.901 29.2696C319.218 29.2696 319.482 29.3752 319.694 29.5866C319.905 29.7979 320.011 30.0621 320.011 30.4319V64.1923C320.011 64.932 319.641 65.3546 318.901 65.3546H312.931C312.191 65.3546 311.821 64.9848 311.821 64.1923V30.4319C311.821 30.0621 311.927 29.7979 312.138 29.5866C312.35 29.3752 312.614 29.2696 312.931 29.2696H318.901ZM344.842 28.9526C347.008 28.9526 349.122 29.4809 351.182 30.5904C353.243 31.6999 354.933 33.3906 356.307 35.6624C357.628 37.9342 358.315 40.7872 358.315 44.1685V64.0866C358.315 64.8791 357.945 65.249 357.205 65.249H351.552C350.759 65.249 350.337 64.8791 350.337 64.0866V44.4327C350.337 43.059 350.02 41.791 349.333 40.5759C348.646 39.3607 347.695 38.3569 346.533 37.6172C345.318 36.8776 343.997 36.5077 342.517 36.5077C341.249 36.5077 339.981 36.8247 338.766 37.5116C337.498 38.1984 336.495 39.1494 335.702 40.4174C334.91 41.6854 334.487 43.1647 334.487 44.8025V64.0338C334.434 64.5093 334.276 64.7735 333.959 65.0376C333.642 65.249 333.219 65.3546 332.849 65.3546H327.671C326.879 65.3546 326.456 64.932 326.456 64.1395V30.4319C326.456 29.6394 326.879 29.2167 327.671 29.2167H331.475C331.845 29.2167 332.268 29.3752 332.532 29.6394C332.849 29.9036 333.06 30.2734 333.166 30.6432L333.642 34.7114C335.015 32.7566 336.653 31.3301 338.608 30.3791C340.563 29.4281 342.676 28.9526 344.842 28.9526ZM381.508 36.1379C379.395 36.1379 377.546 36.6662 375.908 37.6701C374.27 38.6739 373.055 40.0476 372.104 41.791C371.206 43.5345 370.73 45.3837 370.73 47.4442C370.73 49.6104 371.206 51.5123 372.157 53.203C373.108 54.8937 374.429 56.2145 376.067 57.1655C377.704 58.1165 379.554 58.592 381.561 58.592C383.569 58.592 385.365 58.1165 386.95 57.1127C388.535 56.1088 389.803 54.7352 390.754 53.0445C391.652 51.301 392.128 49.4519 392.128 47.4442C392.234 45.3309 391.758 43.4289 390.86 41.7382C389.909 40.0476 388.641 38.6739 387.003 37.6701C385.365 36.6662 383.569 36.1379 381.508 36.1379ZM112.218 35.8737C114.49 35.8737 116.55 36.5606 118.293 37.9871C120.037 39.4136 121.358 41.3155 122.203 43.6402H102.074C102.602 42.1609 103.342 40.84 104.346 39.6777C105.349 38.5154 106.512 37.5644 107.885 36.8776C109.259 36.1907 110.738 35.8209 112.218 35.8737ZM233.84 36.8776C232.466 37.5644 231.304 38.5154 230.3 39.6777C229.296 40.84 228.556 42.1609 228.028 43.6402H248.21C247.365 41.3155 246.044 39.4136 244.301 37.9871C242.557 36.5606 240.497 35.8737 238.172 35.8737C236.693 35.8209 235.16 36.1907 233.84 36.8776ZM318.214 16.3783C319.271 16.3783 319.799 16.9595 319.799 18.1746V23.1409C319.799 23.7221 319.694 24.1448 319.429 24.3561C319.165 24.5674 318.743 24.7259 318.214 24.7259H313.301C312.138 24.7259 311.557 24.1976 311.557 23.1409V18.1746C311.557 16.9595 312.138 16.3783 313.301 16.3783H318.214Z" fill="#4B4B4B" fill-opacity="0.8"/>
</svg>
